<?xml version="1.0" encoding="utf-8"?>
<!-- Generator: Adobe Illustrator 19.0.0, SVG Export Plug-In . SVG Version: 6.00 Build 0)  -->
<svg version="1.1" id="Calque_1" xmlns="http://www.w3.org/2000/svg" xmlns:xlink="http://www.w3.org/1999/xlink" x="0px" y="0px"
	 viewBox="722 -120.1 2040 1080" style="enable-background:new 722 -120.1 2040 1080;" xml:space="preserve">
<g>
	<path d="M1742.9,937.5c-70.5,0-139-13.8-203.4-41.1c-62.2-26.3-118.1-64-166.1-112c-48-48-85.7-103.9-112-166.1
		c-27.3-64.5-41.1-132.9-41.1-203.4c0-70.5,13.8-139,41.1-203.4c26.3-62.2,64-118.1,112-166.1c48-48,103.9-85.7,166.1-112
		c64.5-27.3,132.9-41.1,203.4-41.1s139,13.8,203.4,41.1c62.2,26.3,118.1,64,166.1,112c48,48,85.7,103.9,112,166.1
		c27.3,64.5,41.1,132.9,41.1,203.4c0,70.5-13.8,139-41.1,203.4c-26.3,62.2-64,118.1-112,166.1c-48,48-103.9,85.7-166.1,112
		C1881.9,923.6,1813.5,937.5,1742.9,937.5z M1742.9-47.8c-255.1,0-462.6,207.5-462.6,462.6c0,255.1,207.5,462.6,462.6,462.6
		s462.6-207.5,462.6-462.6C2205.6,159.7,1998-47.8,1742.9-47.8z"/>
	<g>
		<path d="M2703.8,271.6v80h-481.9c3.3,22.3,5.1,45.1,5.1,68.3c0,3.9-0.1,7.8-0.1,11.7h476.9v80v0.1h-486
			c-4.1,20-9.5,39.6-16.1,58.7H2762V211.9h-584.9c9.8,19.2,18.3,39.1,25.3,59.7H2703.8z"/>
		<path d="M1283.4,570.4c-6.6-19.1-12.1-38.7-16.1-58.8H782.4v-80h475.7c-0.1-3.9-0.1-7.8-0.1-11.7c0-23.2,1.7-46,5.1-68.3H782.4
			v-80.1h500.2c7-20.5,15.5-40.4,25.3-59.6H722v358.5H1283.4z"/>
	</g>
	<polygon points="1742.9,-28.6 1843.7,281.3 2169.6,281.3 1905.9,472.9 2006.6,782.9 1742.9,591.3 1479.3,782.9 1580,472.9 
		1316.3,281.3 1642.2,281.3 	"/>
</g>
</svg>
